<?xml version="1.0" standalone="no"?>
<!DOCTYPE svg PUBLIC "-//W3C//DTD SVG 20010904//EN"
 "http://www.w3.org/TR/2001/REC-SVG-20010904/DTD/svg10.dtd">
<svg version="1.0" xmlns="http://www.w3.org/2000/svg"
 width="591.000000pt" height="91.000000pt" viewBox="0 0 591.000000 91.000000"
 preserveAspectRatio="xMidYMid meet">

<g transform="translate(0.000000,91.000000) scale(0.100000,-0.100000)"
fill="#000000" stroke="none">
<path d="M342 844 c-110 -29 -213 -114 -265 -217 -127 -250 31 -552 311 -597
269 -44 516 203 472 472 -39 246 -282 406 -518 342z m268 -45 c145 -68 230
-201 230 -359 0 -116 -32 -191 -118 -278 -117 -120 -302 -146 -462 -66 -124
62 -225 249 -204 377 19 114 44 167 113 240 83 87 158 117 291 114 79 -2 104
-7 150 -28z"/>
<path d="M355 806 c-72 -18 -124 -48 -176 -103 -58 -60 -85 -112 -100 -197
-38 -204 95 -396 301 -436 161 -32 330 52 403 200 147 293 -109 615 -428 536z
m36 -356 c18 -52 41 -102 51 -112 17 -17 16 -18 -24 -18 -28 0 -38 3 -30 9 11
7 11 16 1 50 -12 40 -13 41 -55 41 -42 0 -44 -1 -55 -41 -11 -34 -10 -42 2
-50 9 -6 0 -8 -31 -8 -25 0 -38 3 -30 6 21 8 25 16 66 123 36 92 52 117 65
102 4 -4 21 -50 40 -102z m119 100 c-13 -8 -11 -20 14 -92 16 -46 32 -89 36
-96 4 -8 19 21 38 73 35 96 38 111 20 118 -7 3 7 6 31 6 42 1 43 1 23 -16 -12
-10 -39 -63 -60 -118 -22 -55 -46 -101 -53 -103 -10 -1 -27 34 -52 108 -22 60
-46 114 -55 120 -13 7 -6 9 28 10 32 0 41 -3 30 -10z"/>
<path d="M321 495 c-6 -16 -14 -36 -16 -42 -3 -9 6 -13 25 -13 33 0 36 10 16
55 l-14 30 -11 -30z"/>
<path d="M4060 721 c-43 -6 -44 -6 -19 -18 35 -15 39 -41 39 -253 0 -232 -5
-266 -39 -279 -20 -7 -5 -9 64 -9 50 0 81 3 70 5 -45 11 -45 12 -45 294 0 209
-3 269 -12 267 -7 0 -33 -4 -58 -7z"/>
<path d="M4265 720 c-27 -4 -42 -8 -33 -8 9 -1 24 -9 32 -18 14 -13 16 -51 16
-258 0 -255 0 -258 -45 -269 -11 -2 21 -5 70 -5 70 0 84 2 63 9 -22 9 -27 18
-33 61 -7 52 7 98 30 98 7 0 38 -34 70 -75 67 -88 88 -105 131 -105 44 0 50
12 14 30 -17 9 -62 56 -101 105 l-71 90 58 53 c33 29 71 56 87 59 53 11 26 23
-50 23 -63 -1 -74 -3 -58 -12 11 -6 22 -13 24 -15 7 -5 -121 -133 -133 -133
-5 0 -7 78 -4 190 4 136 2 190 -6 188 -6 0 -33 -4 -61 -8z"/>
<path d="M3857 674 c-14 -15 -7 -53 12 -59 31 -10 52 5 49 34 -2 19 -9 27 -28
29 -14 2 -29 0 -33 -4z"/>
<path d="M1502 653 c-17 -16 -84 -172 -154 -363 -27 -71 -53 -108 -84 -116
-13 -3 -24 -9 -24 -13 0 -8 168 -6 177 2 3 4 -3 7 -14 7 -44 0 -48 24 -16 113
l29 82 90 0 89 0 28 -79 c29 -85 29 -105 -3 -113 -43 -11 -16 -18 71 -17 96 2
119 8 69 18 -38 7 -57 47 -151 313 -35 101 -69 183 -75 183 -7 0 -21 -8 -32
-17z m53 -180 l24 -63 -73 0 -74 0 36 97 36 96 14 -33 c7 -19 24 -62 37 -97z"/>
<path d="M3250 658 c0 -5 8 -8 18 -8 43 0 76 -70 202 -433 23 -65 37 -78 66
-59 6 4 50 106 97 226 85 216 113 266 149 266 10 0 18 3 18 8 0 4 -41 7 -90 7
-89 1 -114 -7 -65 -19 19 -5 25 -13 25 -34 0 -33 -132 -395 -140 -384 -18 20
-142 384 -136 398 3 9 15 18 26 21 43 11 16 18 -75 18 -52 0 -95 -3 -95 -7z"/>
<path d="M1850 511 l-55 -6 30 -15 30 -15 3 -139 c3 -145 -1 -161 -41 -169
-12 -2 19 -5 68 -5 69 0 84 2 64 9 -30 11 -39 43 -39 147 0 74 18 115 63 142
36 23 65 25 101 9 40 -19 51 -61 49 -191 l-3 -118 63 1 c34 1 53 4 42 6 -41
10 -45 22 -45 134 0 172 -30 219 -139 219 -45 0 -56 -5 -92 -37 l-41 -37 7 37
c4 20 3 36 -1 35 -5 -1 -34 -4 -64 -7z"/>
<path d="M2328 513 c-50 -4 -65 -19 -25 -25 22 -3 22 -5 22 -153 0 -149 0
-149 -25 -162 -22 -11 -15 -13 60 -13 75 0 82 2 60 13 -24 12 -25 17 -28 121
-3 122 5 145 62 173 46 21 101 11 124 -25 14 -22 17 -49 16 -154 l0 -128 60 1
c34 1 52 4 41 6 -42 10 -45 21 -45 140 0 170 -28 213 -139 213 -42 0 -56 -5
-86 -31 l-35 -31 0 31 c0 17 -3 30 -7 29 -5 -1 -29 -3 -55 -5z"/>
<path d="M2811 505 c-27 -12 -32 -19 -27 -38 3 -12 6 -25 6 -29 0 -17 18 -7
23 12 6 23 44 40 88 40 42 0 79 -39 79 -83 l0 -34 -59 -6 c-82 -7 -144 -37
-160 -75 -29 -69 15 -142 86 -142 40 0 67 12 107 49 l29 26 -6 -32 -6 -33 62
1 c34 1 52 4 39 6 -34 7 -41 39 -35 145 7 115 -6 161 -51 189 -38 23 -125 25
-175 4z m169 -204 c0 -42 -4 -53 -30 -74 -33 -28 -79 -42 -109 -32 -44 13 -43
96 1 124 18 11 77 25 126 30 8 1 12 -15 12 -48z"/>
<path d="M3863 512 c-29 -2 -53 -7 -53 -13 0 -5 9 -9 20 -9 32 0 40 -32 40
-154 0 -129 -8 -162 -42 -169 -13 -2 18 -4 67 -4 50 0 80 2 67 4 -37 7 -43 35
-41 194 0 83 -1 151 -3 152 -1 1 -27 1 -55 -1z"/>
<path d="M4718 500 c-121 -65 -118 -270 5 -329 82 -40 199 -18 244 45 62 87
43 216 -40 278 -41 30 -158 34 -209 6z m175 -43 c67 -62 72 -170 13 -235 -27
-28 -41 -35 -82 -39 -46 -5 -53 -3 -86 29 -71 66 -74 174 -8 240 32 33 44 38
83 38 38 0 52 -6 80 -33z"/>
<path d="M5521 505 c-27 -12 -32 -19 -27 -38 3 -12 6 -25 6 -29 0 -17 17 -7
28 16 8 17 22 27 46 32 73 13 116 -15 116 -75 l0 -38 -59 -6 c-82 -7 -144 -37
-160 -75 -29 -69 15 -142 86 -142 40 0 67 12 107 49 l29 26 -6 -32 -6 -33 62
1 c40 1 53 3 38 8 -33 9 -38 31 -33 142 6 116 -7 163 -52 190 -38 23 -125 25
-175 4z m169 -204 c0 -42 -4 -53 -30 -74 -56 -47 -121 -47 -138 1 -23 67 31
109 156 121 8 1 12 -15 12 -48z"/>
<path d="M5035 500 c3 -5 13 -10 20 -10 18 0 40 -43 100 -200 27 -69 51 -129
55 -133 4 -4 18 -5 32 -2 20 5 30 22 58 98 55 150 97 237 114 237 9 0 16 5 16
10 0 6 -30 10 -72 9 -69 0 -72 -1 -50 -16 12 -8 22 -24 22 -35 0 -21 -76 -228
-88 -240 -9 -9 -93 215 -92 244 0 9 10 24 22 32 21 15 17 16 -60 16 -53 0 -81
-4 -77 -10z"/>
</g>
</svg>
